PathFileType	4	(x/y/z)	S06_PSF_T02
DataRate	CameraRate	NumFrames	NumMarkers	Units	OrigDataRate	OrigDataStartFrame	OrigNumFrames
240	240	8	51	mm	240	252	402
Frame#	Time	Sternum			R.Acromium			L.Acromium			Top.Head			R.ASIS			L.ASIS			R.PSIS			L.PSIS			R.Great.Tro			L.Great.Tro			R.Iliac.Crest			L.Iliac.Crest			V.Sacral			R.Thigh.Upper.Post			R.Thigh.Lower.Ant			R.Thigh.Lower.Post			R.Thigh.Upper.Ant			R.Knee.Lat			R.Knee.Med			R.Shank.Upper.Post			R.Shank.Lower.Ant			R.Shank.Lower.Post			R.Shank.Upper.Ant			R.Ankle.Lat			R.Ankle.Med			R.Heel.Upper			R.Heel.Med			R.Heel.Lat			R.Toe.Lat			R.Toe.Med			R.Toe.Tip			L.Thigh.Upper.Post			L.Thigh.Lower.Ant			L.Thigh.Lower.Post			L.Thigh.Upper.Ant			L.Knee.Lat			L.Knee.Med			L.Shank.Upper.Post			L.Shank.Lower.Ant			L.Shank.Lower.Post			L.Shank.Upper.Ant			L.Ankle.Lat			L.Ankle.Med			L.Heel.Upper			L.Heel.Med			L.Heel.Lat			L.Toe.Lat			L.Toe.Med			L.Toe.Tip			Cervical.Spine			Back			
		X1	Y1	Z1	X2	Y2	Z2	X3	Y3	Z3	X4	Y4	Z4	X5	Y5	Z5	X6	Y6	Z6	X7	Y7	Z7	X8	Y8	Z8	X9	Y9	Z9	X10	Y10	Z10	X11	Y11	Z11	X12	Y12	Z12	X13	Y13	Z13	X14	Y14	Z14	X15	Y15	Z15	X16	Y16	Z16	X17	Y17	Z17	X18	Y18	Z18	X19	Y19	Z19	X20	Y20	Z20	X21	Y21	Z21	X22	Y22	Z22	X23	Y23	Z23	X24	Y24	Z24	X25	Y25	Z25	X26	Y26	Z26	X27	Y27	Z27	X28	Y28	Z28	X29	Y29	Z29	X30	Y30	Z30	X31	Y31	Z31	X32	Y32	Z32	X33	Y33	Z33	X34	Y34	Z34	X35	Y35	Z35	X36	Y36	Z36	X37	Y37	Z37	X38	Y38	Z38	X39	Y39	Z39	X40	Y40	Z40	X41	Y41	Z41	X42	Y42	Z42	X43	Y43	Z43	X44	Y44	Z44	X45	Y45	Z45	X46	Y46	Z46	X47	Y47	Z47	X48	Y48	Z48	X49	Y49	Z49	X50	Y50	Z50	X51	Y51	Z51	

252	1.0458	-115.19	1274.4	334.19	-233.46	1484.6	503.15	-249.93	1482.7	152.69	-200.24	1800.6	325.29	-173.75	1041.4	465.67	-157.68	1039.7	210.82	NaN	NaN	NaN	-364.69	1063	281.72	-243.37	971.21	513.04	-247.98	961.04	152.85	-257.58	1118.2	490.7	-229.15	1109.7	170.72	-378.47	1028.1	325.58	-302.85	730.22	490.87	-267.36	640.87	454.48	-334.48	649.51	468.56	-230.67	722.68	475.32	-349.22	536.14	449.36	-341.53	545.25	321.32	-462.98	331.24	438.16	-426.68	252.72	412.51	-490.91	260.97	419.81	-398.22	322.43	431.52	-504.32	127.28	388.38	-491.37	136.17	304.18	-579.01	96.062	339.64	-573.8	62.729	310.96	-575.4	65.343	375.48	-401.93	37.807	420.94	-373.55	38.299	299.73	-307.14	45.161	347.67	-112.93	724.79	167.04	-46.939	663.39	230.58	-104.92	635.38	184.2	-64.236	755.35	211.54	-90.473	545.36	203.83	-65.399	557.19	325.91	-54.054	318.24	213.95	28.194	284.44	204.55	-30.023	249.74	229.07	1.7995	350.25	195.71	69.927	132.59	217.9	82.227	161.1	304.96	20.711	59.639	272.48	45.828	40.971	304.06	40.701	38.861	242.53	199.34	113.71	186.41	222.76	135.63	300.44	273.18	180.25	239.73	-293.08	1537.1	330.51	-356.44	1266.3	330.72
253	1.05	-109.49	1273.6	333.96	-227.85	1483.9	502.94	-244.31	1481.9	152.46	-194.84	1799.9	325.01	-167.99	1040.7	465.45	-151.96	1039	210.53	NaN	NaN	NaN	-358.96	1062.3	281.31	-237.77	970.62	512.77	-242.14	960.31	152.51	-251.88	1117.4	490.36	-223.21	1109	170.35	-372.72	1027.3	325.15	-298.02	729.97	490.77	-262.8	640.45	454.51	-329.9	649.34	468.48	-225.84	722.18	475.29	-345.15	535.97	449.31	-337.3	545	321.31	-460.46	331.91	438.24	-424.81	253.08	412.57	-488.94	261.88	419.97	-395.75	322.58	431.56	-503.49	128.25	388.5	-490.43	137.04	304.3	-578.4	97.524	339.83	-573.44	64.218	311.08	-574.99	66.722	375.6	-401.77	37.821	420.97	-373.39	38.365	299.73	-307.01	44.99	347.72	-107.89	723.66	167.14	-42.051	662.35	230.93	-100.13	634.31	184.69	-59.129	754.26	211.5	-85.572	544.42	204.44	-60.668	556.46	326.65	-47.502	317.42	214.48	35.04	284.23	205.46	-23.039	249.08	229.67	8.2171	349.86	196.58	77.913	132.61	218.8	89.55	161.24	305.95	29.079	59.279	273.05	54.175	40.749	304.73	49.444	38.606	243.16	207.79	114.88	188.04	230.21	137.15	302.2	280.62	182.23	241.81	-287.46	1536.4	330.27	-350.74	1265.5	330.42
254	1.0542	-103.77	1272.9	333.71	-222.23	1483.2	502.73	-238.68	1481.2	152.22	-189.42	1799.2	324.73	-162.2	1040	465.22	-146.23	1038.2	210.23	NaN	NaN	NaN	-353.22	1061.5	280.9	-232.13	970.04	512.49	-236.28	959.59	152.18	-246.16	1116.7	490.02	-217.27	1108.3	169.97	-366.95	1026.6	324.72	-293.11	729.74	490.66	-258.14	640.06	454.55	-325.23	649.17	468.4	-220.93	721.71	475.25	-340.95	535.8	449.28	-332.93	544.74	321.3	-457.84	332.6	438.34	-422.86	253.47	412.65	-486.9	262.83	420.13	-393.19	322.75	431.61	-502.61	129.28	388.62	-489.43	137.96	304.43	-577.76	99.067	340.03	-573.06	65.793	311.21	-574.54	68.179	375.72	-401.59	37.838	421.01	-373.22	38.437	299.74	-306.88	44.823	347.78	-102.76	722.6	167.28	-37.023	661.38	231.28	-95.221	633.31	185.21	-53.893	753.24	211.47	-80.528	543.55	205.04	-55.811	555.78	327.36	-41.149	316.65	214.98	41.63	283.94	206.38	-16.371	248.43	230.24	14.488	349.43	197.45	85.378	132.52	219.72	96.38	161.22	306.95	36.819	58.938	273.6	61.823	40.485	305.37	57.495	38.354	243.77	215.66	115.75	189.71	237.09	138.26	303.99	287.57	183.74	243.94	-281.83	1535.7	330.03	-345.04	1264.7	330.11
255	1.0583	-98.043	1272.2	333.44	-216.59	1482.5	502.5	-233.07	1480.4	151.96	-184	1798.6	324.44	-156.39	1039.4	464.98	-140.47	1037.5	209.91	NaN	NaN	NaN	-347.46	1060.8	280.5	-226.46	969.5	512.21	-230.39	958.89	151.87	-240.42	1116	489.68	-211.34	1107.6	169.59	-361.17	1025.8	324.3	-288.12	729.51	490.53	-253.37	639.67	454.6	-320.45	649	468.32	-215.96	721.26	475.19	-336.63	535.62	449.25	-328.42	544.47	321.32	-455.13	333.31	438.44	-420.83	253.88	412.73	-484.77	263.81	420.31	-390.55	322.93	431.67	-501.69	130.36	388.76	-488.37	138.93	304.58	-577.06	100.69	340.24	-572.64	67.456	311.34	-574.06	69.717	375.86	-401.4	37.857	421.04	-373.04	38.516	299.74	-306.74	44.659	347.83	-97.526	721.6	167.46	-31.858	660.48	231.63	-90.186	632.37	185.76	-48.532	752.3	211.44	-75.341	542.75	205.62	-50.825	555.14	328.04	-34.996	315.9	215.46	47.965	283.55	207.3	-10.017	247.78	230.8	20.611	348.93	198.31	92.328	132.3	220.64	102.73	161.04	307.96	43.935	58.613	274.14	68.776	40.178	306	64.856	38.1	244.38	222.97	116.28	191.41	243.42	138.96	305.82	294.05	184.76	246.14	-276.21	1535	329.78	-339.33	1264	329.79
256	1.0625	-92.306	1271.5	333.14	-210.94	1481.8	502.26	-227.45	1479.8	151.7	-178.56	1798	324.15	-150.55	1038.8	464.72	-134.69	1036.8	209.57	NaN	NaN	NaN	-341.68	1060	280.11	-220.75	968.99	511.93	-224.48	958.21	151.56	-234.65	1115.3	489.33	-205.43	1106.9	169.21	-355.36	1025.1	323.89	-283.05	729.3	490.4	-248.5	639.3	454.65	-315.57	648.84	468.24	-210.9	720.84	475.13	-332.17	535.44	449.24	-323.76	544.18	321.34	-452.31	334.05	438.56	-418.73	254.32	412.83	-482.56	264.83	420.48	-387.83	323.13	431.74	-500.72	131.49	388.9	-487.26	139.95	304.73	-576.31	102.41	340.46	-572.18	69.21	311.48	-573.55	71.337	376	-401.2	37.879	421.08	-372.86	38.601	299.75	-306.6	44.499	347.88	-92.19	720.67	167.67	-26.559	659.65	231.98	-85.022	631.5	186.31	-43.046	751.42	211.42	-70.011	542.01	206.17	-45.71	554.55	328.67	-29.041	315.18	215.92	54.045	283.06	208.22	-3.9739	247.12	231.35	26.584	348.38	199.17	98.773	131.96	221.57	108.61	160.69	308.99	50.439	58.307	274.67	75.042	39.836	306.63	71.538	37.841	244.98	229.73	116.47	193.13	249.21	139.25	307.68	300.09	185.26	248.38	-270.58	1534.4	329.53	-333.61	1263.3	329.47
257	1.0667	-86.557	1270.8	332.81	-205.28	1481.2	502.01	-221.85	1479.1	151.42	-173.11	1797.5	323.86	-144.69	1038.2	464.45	-128.88	1036.1	209.22	NaN	NaN	NaN	-335.87	1059.3	279.72	-215.01	968.5	511.64	-218.55	957.54	151.28	-228.85	1114.6	488.98	-199.53	1106.2	168.83	-349.54	1024.4	323.51	-277.89	729.09	490.26	-243.52	638.95	454.72	-310.59	648.67	468.16	-205.78	720.45	475.06	-327.59	535.25	449.24	-318.96	543.87	321.38	-449.4	334.82	438.68	-416.55	254.78	412.94	-480.27	265.89	420.67	-385.02	323.34	431.81	-499.69	132.69	389.05	-486.09	141.02	304.9	-575.51	104.2	340.69	-571.68	71.059	311.62	-572.99	73.044	376.14	-400.99	37.904	421.11	-372.66	38.692	299.75	-306.46	44.344	347.93	-86.747	719.82	167.91	-21.128	658.89	232.33	-79.73	630.7	186.86	-37.439	750.61	211.41	-64.546	541.33	206.69	-40.465	554	329.25	-23.283	314.48	216.37	59.873	282.47	209.14	1.7651	246.44	231.9	32.405	347.75	200.02	104.73	131.47	222.5	114.03	160.18	310.04	56.347	58.025	275.19	80.636	39.465	307.25	77.553	37.578	245.57	235.96	116.3	194.88	254.47	139.13	309.56	305.69	185.26	250.66	-264.95	1533.8	329.26	-327.88	1262.6	329.15
258	1.0708	-80.796	1270.2	332.46	-199.61	1480.5	501.75	-216.25	1478.5	151.14	-167.64	1796.9	323.57	-138.79	1037.6	464.16	-123.05	1035.5	208.86	NaN	NaN	NaN	-330.04	1058.7	279.35	-209.24	968.04	511.35	-212.6	956.88	151	-223.02	1114	488.63	-193.65	1105.6	168.44	-343.69	1023.7	323.14	-272.65	728.89	490.12	-238.43	638.61	454.79	-305.49	648.5	468.08	-200.57	720.08	474.98	-322.86	535.05	449.26	-314	543.54	321.43	-446.39	335.61	438.81	-414.29	255.26	413.06	-477.9	266.99	420.86	-382.12	323.57	431.9	-498.61	133.94	389.21	-484.86	142.15	305.09	-574.64	106.09	340.92	-571.13	73.005	311.76	-572.39	74.841	376.29	-400.77	37.93	421.15	-372.45	38.79	299.76	-306.32	44.192	347.97	-81.198	719.02	168.15	-15.572	658.2	232.67	-74.311	629.96	187.41	-31.718	749.86	211.4	-58.953	540.71	207.18	-35.094	553.5	329.78	-17.718	313.79	216.82	65.456	281.77	210.06	7.2101	245.75	232.44	38.078	347.05	200.86	110.22	130.86	223.43	119.03	159.51	311.09	61.684	57.776	275.69	85.58	39.076	307.87	82.924	37.316	246.16	241.69	115.77	196.65	259.24	138.6	311.46	310.89	184.75	252.97	-259.32	1533.2	328.99	-322.14	1262	328.84
259	1.075	-75.022	1269.6	332.09	-193.92	1479.9	501.47	-210.67	1477.9	150.84	-162.16	1796.4	323.28	-132.86	1037.1	463.86	-117.18	1034.9	208.49	NaN	NaN	NaN	-324.19	1058	278.99	-203.43	967.62	511.06	-206.64	956.25	150.75	-217.16	1113.5	488.27	-187.78	1105	168.07	-337.81	1023	322.79	-267.32	728.7	489.97	-233.22	638.27	454.88	-300.29	648.32	468	-195.29	719.74	474.9	-318	534.84	449.29	-308.88	543.2	321.5	-443.27	336.44	438.95	-411.94	255.77	413.2	-475.43	268.14	421.06	-379.13	323.81	432	-497.48	135.26	389.38	-483.56	143.32	305.28	-573.71	108.08	341.15	-570.52	75.053	311.9	-571.74	76.73	376.44	-400.53	37.958	421.19	-372.24	38.895	299.77	-306.18	44.045	348.02	-75.543	718.3	168.41	-9.8985	657.56	233	-68.769	629.28	187.94	-25.887	749.18	211.4	-53.247	540.13	207.64	-29.599	553.04	330.25	-12.338	313.12	217.26	70.802	280.96	210.96	12.375	245.04	232.99	43.603	346.29	201.68	115.26	130.11	224.36	123.63	158.68	312.14	66.476	57.57	276.17	89.903	38.678	308.47	87.679	37.066	246.74	246.92	114.89	198.43	263.55	137.67	313.38	315.71	183.74	255.31	-253.69	1532.6	328.71	-316.38	1261.3	328.52
